<?xml version="1.0" encoding="UTF-8"?>
<svg id="Layer_1" data-name="Layer 1" xmlns="http://www.w3.org/2000/svg" xmlns:xlink="http://www.w3.org/1999/xlink" viewBox="0 0 2133.07 1929.88">
  <defs>
    <style>
      .cls-1 {
        fill: #00bdd1;
      }

      .cls-1, .cls-2, .cls-3 {
        fill-rule: evenodd;
        stroke-width: 0px;
      }

      .cls-2 {
        fill: url(#GradientFill_2);
      }

      .cls-3 {
        fill: url(#GradientFill_2-2);
      }
    </style>
    <linearGradient id="GradientFill_2" data-name="GradientFill 2" x1="1464.22" y1="1636.2" x2="675.26" y2="1636.2" gradientUnits="userSpaceOnUse">
      <stop offset="0" stop-color="#00bdd1"/>
      <stop offset="1" stop-color="#005b64"/>
    </linearGradient>
    <linearGradient id="GradientFill_2-2" data-name="GradientFill 2" x1="402.66" y1="294.83" x2="1612.1" y2="294.8" xlink:href="#GradientFill_2"/>
  </defs>
  <path class="cls-2" d="M726.3,1929.88h1029.23c11.29,0,29.16-.69,45.25-8.42,77.42-37.21,115.99-84.15,115.99-143.04v-182.34c0-2.81-2.85-5.61-8.5-5.61h-864.37c-14.14,0-34.78,1.67-62.24-5.62-89-23.66-132.96-84.16-132.96-165.49,0-23.94,6.8-49.54,20.41-76.84-186.58,199.04-258.59,409.08-142.82,587.36Z"/>
  <path class="cls-3" d="M232.48,0c-5.62,0-8.48,2.82-8.48,8.42v182.32l2.83,22.45c11.35,89.89,90.52,126.21,169.73,126.21h703.91c14.14,0,31.8-3.33,53.75,2.81,88.68,24.79,130.13,84.15,130.13,168.31,0,22.69-7.41,49.07-22.23,79.12C1450.28,389.94,1523.22,178.95,1407.02,0H232.48Z"/>
  <path class="cls-1" d="M1262.13,589.64c-3.49,7.08-7.4,14.38-11.72,21.87-2.73,2.71-18.85,15.31-48.23,37.74-8.93,8.35-18.03,16.69-27.33,24.98h-5.52c-146.45,111.02-490.54,368.33-1033.55,773.19C45.27,1503.51,0,1559.61,0,1618.52v159.89c0,8.42,2.83,16.83,2.83,19.63,33.94,86.96,84.86,131.84,158.42,131.84h565.04c-115.77-178.28-43.77-388.33,142.83-587.37,3.94-7.9,5.89-18.22,13.52-24.13l152.14-117.93c173.51-131,494.84-370.77,962.49-720.78,90.52-53.3,135.79-112.21,135.79-171.11v-159.89c0-8.41,0-14.02-2.83-19.63C2099.12,44.88,2045.37,0,1971.81,0h-564.78c116.2,178.95,43.24,389.94-144.9,589.64Z"/>
</svg>