<?xml version="1.0" encoding="UTF-8"?>
<svg id="Layer_1" data-name="Layer 1" xmlns="http://www.w3.org/2000/svg" xmlns:xlink="http://www.w3.org/1999/xlink" viewBox="0 0 3841.12 1067">
  <defs>
    <style>
      .cls-1, .cls-2, .cls-3, .cls-4 {
        fill-rule: evenodd;
      }

      .cls-1, .cls-2, .cls-3, .cls-4, .cls-5 {
        stroke-width: 0px;
      }

      .cls-1, .cls-5 {
        fill: #00bdd1;
      }

      .cls-2 {
        fill: url(#GradientFill_2);
      }

      .cls-3 {
        fill: #0d3643;
      }

      .cls-4 {
        fill: url(#GradientFill_2-2);
      }
    </style>
    <linearGradient id="GradientFill_2" data-name="GradientFill 2" x1="505.46" y1="695.99" x2="233.11" y2="695.99" gradientUnits="userSpaceOnUse">
      <stop offset="0" stop-color="#00bdd1"/>
      <stop offset="1" stop-color="#005b64"/>
    </linearGradient>
    <linearGradient id="GradientFill_2-2" data-name="GradientFill 2" x1="139" y1="228.98" x2="556.51" y2="228.97" xlink:href="#GradientFill_2"/>
  </defs>
  <path class="cls-1" d="M3222.03,808.57c-77.47,0-143.58-27.48-197.91-82.43-54.95-54.33-82.43-120.44-82.43-197.91s27.48-142.95,82.43-197.9c54.33-54.33,120.44-81.6,197.91-81.6,56.81,0,108.86,15.91,156.18,47.72l-51.45,76.23c-31.6-21.28-66.51-32.02-104.73-32.02-51.65,0-95.86,18.39-132.63,55.16-36.77,36.57-55.16,80.78-55.16,132.42s18.39,95.86,55.16,132.63c36.77,36.77,80.98,55.16,132.63,55.16,39.87,0,76.22-11.78,108.86-35.12l53.92,75.61c-48.96,34.71-103.09,52.06-162.78,52.06Z"/>
  <path class="cls-1" d="M2917.7,84.07c0,23.35-8.26,43.39-24.79,59.91-16.52,16.53-36.56,24.79-59.91,24.79s-42.75-8.27-59.28-24.79c-16.53-16.53-24.78-36.57-24.78-59.91s8.26-43.17,24.78-59.28c16.53-16.53,36.36-24.79,59.28-24.79s43.39,8.26,59.91,24.79c16.53,16.12,24.79,35.95,24.79,59.28Z"/>
  <rect class="cls-5" x="2559.53" y="17.56" width="91.31" height="780.67"/>
  <path class="cls-1" d="M2327.79,808.57c-77.47,0-143.58-27.48-197.9-82.43-54.96-54.33-82.43-120.44-82.43-197.91s27.47-142.95,82.43-197.9c54.33-54.33,120.43-81.6,197.9-81.6,56.81,0,108.87,15.91,156.18,47.72l-51.44,76.23c-31.6-21.28-66.52-32.02-104.74-32.02-51.65,0-95.85,18.39-132.62,55.16-36.78,36.57-55.17,80.78-55.17,132.42s18.39,95.86,55.17,132.63c36.77,36.77,80.97,55.16,132.62,55.16,39.87,0,76.23-11.78,108.87-35.12l53.92,75.61c-48.96,34.71-103.09,52.06-162.79,52.06Z"/>
  <path class="cls-3" d="M1681.43,248.73c77.47,0,143.57,27.48,198.52,82.22,55.16,55.36,82.84,121.67,82.84,199.14s-27.27,140.68-81.8,193.16c-54.33,52.47-120.85,78.71-199.56,78.71v-92.13c53.92,0,98.95-17.15,134.9-51.45,35.94-34.29,53.91-77.05,53.91-128.29s-18.38-96.68-55.15-133.65c-37.19-37.19-81.6-55.78-133.66-55.78s-96.68,18.59-133.87,55.78c-36.98,36.97-55.57,81.59-55.57,133.65v536.91h-92.14v-536.91c0-77.47,27.48-143.78,82.43-199.14,55.16-54.75,121.68-82.22,199.15-82.22Z"/>
  <path class="cls-3" d="M1013.8,810.42c-75.41,0-139.86-27.47-193.57-82.43-53.71-54.54-80.57-120.43-80.57-197.9s26.86-142.95,80.57-197.9c53.71-54.96,118.16-82.22,193.57-82.22s140.06,27.26,193.77,82.22c53.71,54.95,80.36,120.85,80.36,197.9v270h-90.69v-270c0-51.65-17.98-95.85-53.92-132.62-35.95-36.57-79.12-54.95-129.52-54.95s-94.2,18.39-130.14,54.95c-35.74,36.77-53.71,80.97-53.71,132.62s17.97,95.85,53.71,132.63c35.95,36.56,79.32,54.96,130.14,54.96v92.75Z"/>
  <rect class="cls-5" x="2787.56" y="259.05" width="91.31" height="539.18"/>
  <path class="cls-1" d="M3708.49,524.1c41.32,31.81,73.75,71.89,97.51,120.44,23.34,47.51,35.12,97.3,35.12,148.95v4.75l-91.93-1.24v-4.13c0-44.83-11.77-86.97-35.12-126.63-24.17-40.7-56.19-71.07-95.65-91.31-26.24,10.54-52.89,17.76-79.95,21.69v201.01h-91.93v-503.03c0-11.72.51-23.14,1.53-34.3h92.53c-1.41,11.01-2.12,22.43-2.12,34.3v208.23c56.81-11.15,105.36-38.22,145.23-80.98,43.58-46.89,65.49-100.82,65.49-161.55h91.93c0,107.63-44.21,195.64-132.63,263.81Z"/>
  <g>
    <path class="cls-2" d="M250.72,798.23h355.3c3.9,0,10.07-.24,15.62-2.93,26.72-12.95,40.04-29.3,40.04-49.8v-63.48c0-.98-.98-1.95-2.94-1.95h-298.39c-4.88,0-12.01.58-21.49-1.96-30.72-8.24-45.9-29.3-45.9-57.62,0-8.33,2.35-17.25,7.04-26.75-64.41,69.3-89.27,142.42-49.3,204.49Z"/>
    <path class="cls-4" d="M80.25,126.34c-1.94,0-2.93.98-2.93,2.93v63.48l.98,7.82c3.92,31.3,31.25,43.94,58.59,43.94h243c4.88,0,10.98-1.16,18.55.98,30.61,8.63,44.92,29.3,44.92,58.6,0,7.9-2.56,17.09-7.67,27.55,64.95-69.53,90.13-142.98,50.02-205.29H80.25Z"/>
    <path class="cls-1" d="M435.7,331.62c-1.21,2.46-2.55,5-4.04,7.61-.94.94-6.51,5.33-16.65,13.14-3.08,2.91-6.22,5.81-9.43,8.7h-1.91c-50.56,38.65-169.34,128.24-356.79,269.19-31.25,19.53-46.88,39.06-46.88,59.57v55.67c0,2.93.98,5.86.98,6.84,11.72,30.28,29.29,45.9,54.69,45.9h195.06c-39.96-62.07-15.11-135.2,49.3-204.5,1.36-2.75,2.03-6.34,4.67-8.4l52.52-41.06c59.9-45.61,170.82-129.08,332.26-250.94,31.25-18.56,46.88-39.07,46.88-59.57v-55.67c0-2.93,0-4.88-.98-6.84-10.74-29.3-29.3-44.92-54.69-44.92h-194.97c40.11,62.3,14.93,135.76-50.02,205.29Z"/>
  </g>
</svg>